<svg id="Layer_1" data-name="Layer 1" xmlns="http://www.w3.org/2000/svg" xmlns:xlink="http://www.w3.org/1999/xlink" viewBox="0 0 1000 1000"><defs><style>.cls-1{fill:none;}.cls-2{fill:url(#linear-gradient);}.cls-3{fill:url(#linear-gradient-2);}.cls-4{fill:url(#linear-gradient-3);}.cls-5{fill:url(#linear-gradient-4);}.cls-6{fill:url(#linear-gradient-5);}</style><linearGradient id="linear-gradient" x1="322.55" y1="583.63" x2="658.21" y2="583.63" gradientTransform="translate(779 -121.91) rotate(62.29)" gradientUnits="userSpaceOnUse"><stop offset="0" stop-color="#00e7ff"/><stop offset="1" stop-color="#000dff"/></linearGradient><linearGradient id="linear-gradient-2" x1="493.02" y1="416.37" x2="828.68" y2="416.37" gradientTransform="translate(722.13 -362.3) rotate(62.29)" gradientUnits="userSpaceOnUse"><stop offset="0" stop-color="#ffc200"/><stop offset="1" stop-color="#ed0000"/></linearGradient><linearGradient id="linear-gradient-3" x1="490.38" y1="500.46" x2="660.84" y2="500.46" gradientUnits="userSpaceOnUse"><stop offset="0" stop-color="#f0f"/><stop offset="1" stop-color="#7600ff"/></linearGradient><linearGradient id="linear-gradient-4" x1="194.36" y1="762.22" x2="263.56" y2="665.82" gradientTransform="translate(7.01 6.17)" xlink:href="#linear-gradient"/><linearGradient id="linear-gradient-5" x1="194.36" y1="543.54" x2="263.56" y2="447.13" gradientTransform="translate(7.01 6.17)" xlink:href="#linear-gradient-2"/></defs><rect class="cls-1" width="1000" height="1000"/><rect class="cls-2" x="199.88" y="522.36" width="580.99" height="122.54" rx="61.27" transform="translate(-254.35 746.33) rotate(-62.29)"/><rect class="cls-3" x="370.36" y="355.11" width="580.99" height="122.54" rx="61.27" transform="translate(-15.09 807.78) rotate(-62.29)"/><path class="cls-4" d="M635.89,332.6,496.5,597.94a53.91,53.91,0,0,0,18.83,70.37L654.72,403A53.92,53.92,0,0,0,635.89,332.6Z"/><circle class="cls-5" cx="230.65" cy="727.59" r="59.33"/><circle class="cls-6" cx="230.65" cy="508.91" r="59.33"/></svg>