<svg xmlns="http://www.w3.org/2000/svg" xmlns:xlink="http://www.w3.org/1999/xlink" viewBox="0 0 922.94 217.83"><defs><style>.cls-1{fill:#fff;}.cls-2{fill:url(#linear-gradient);}.cls-3{fill:url(#linear-gradient-2);}.cls-4{fill:url(#linear-gradient-3);}.cls-5{fill:url(#linear-gradient-4);}.cls-6{fill:url(#linear-gradient-5);}</style><linearGradient id="linear-gradient" x1="47.36" y1="135.1" x2="152.48" y2="135.1" gradientTransform="translate(173.06 -16.18) rotate(62.29)" gradientUnits="userSpaceOnUse"><stop offset="0" stop-color="#00e7ff"/><stop offset="1" stop-color="#000dff"/></linearGradient><linearGradient id="linear-gradient-2" x1="100.75" y1="82.73" x2="205.86" y2="82.73" gradientTransform="translate(155.25 -91.46) rotate(62.29)" gradientUnits="userSpaceOnUse"><stop offset="0" stop-color="#ffc200"/><stop offset="1" stop-color="#ed0000"/></linearGradient><linearGradient id="linear-gradient-3" x1="99.92" y1="109.06" x2="153.3" y2="109.06" gradientUnits="userSpaceOnUse"><stop offset="0" stop-color="#f0f"/><stop offset="1" stop-color="#7600ff"/></linearGradient><linearGradient id="linear-gradient-4" x1="2.4" y1="186.79" x2="24.08" y2="156.6" gradientTransform="translate(7.01 6.17)" xlink:href="#linear-gradient"/><linearGradient id="linear-gradient-5" x1="2.4" y1="118.31" x2="24.08" y2="88.12" gradientTransform="translate(7.01 6.17)" xlink:href="#linear-gradient-2"/></defs><g id="Layer_2" data-name="Layer 2"><g id="Layer_1-2" data-name="Layer 1"><path class="cls-1" d="M240.68,194.74l-32-98.61h28.73l26.91,85.37H249.83l28.32-85.37h25.64l26.77,85.37H316.61l27.75-85.37H371l-32,98.61H309.14l-22.82-72.55h8l-23.81,72.55Z"/><path class="cls-1" d="M395.22,109.93q-7.34,0-11.84-4.08a13.69,13.69,0,0,1,0-20.29q4.51-4.08,11.84-4.08t11.83,3.87a12.48,12.48,0,0,1,4.51,9.93,13.76,13.76,0,0,1-4.44,10.5Q402.68,109.94,395.22,109.93Zm-13.39,84.81V118.39H408.6v76.35Z"/><path class="cls-1" d="M425.93,194.74V118.39h25.5v22.25l-3.81-6.34a24.69,24.69,0,0,1,11-12.89q7.61-4.29,18.45-4.29v24.09c-1.22-.19-2.27-.31-3.17-.36s-1.85-.07-2.88-.07q-8.17,0-13.25,4.44t-5.07,14.44v35.08Z"/><path class="cls-1" d="M527.36,196q-13.53,0-23.6-5.14a38.71,38.71,0,0,1-15.64-14.09,37.73,37.73,0,0,1-5.56-20.36A38.49,38.49,0,0,1,488,136.07a37.36,37.36,0,0,1,15-13.95,48.72,48.72,0,0,1,42.12-.42,35.48,35.48,0,0,1,14.79,13.45q5.49,8.88,5.5,21.55c0,.94,0,2-.14,3.24s-.19,2.35-.29,3.39H504.54V149.24h46.2l-10.14,3.94a17.78,17.78,0,0,0-1.9-9,14.83,14.83,0,0,0-5.64-5.92,17.7,17.7,0,0,0-16.76,0,14.26,14.26,0,0,0-5.56,6,19.7,19.7,0,0,0-2,9.08v4.09a19.32,19.32,0,0,0,2.33,9.72,15.5,15.5,0,0,0,6.69,6.27,23,23,0,0,0,10.42,2.18,25.74,25.74,0,0,0,9.65-1.62,29.08,29.08,0,0,0,8-5l14.09,14.65a35.54,35.54,0,0,1-13.52,9.23A51.82,51.82,0,0,1,527.36,196Z"/><path class="cls-1" d="M613.72,196.71a88.93,88.93,0,0,1-23.32-3q-11.19-3-18.24-7.81l9.15-20.57a64.44,64.44,0,0,0,15.29,7A56.92,56.92,0,0,0,613.86,175a33.11,33.11,0,0,0,9.3-1.06,11.22,11.22,0,0,0,5.14-2.82,5.91,5.91,0,0,0,1.62-4.15,6.06,6.06,0,0,0-3.1-5.35,28,28,0,0,0-8-3.25q-4.93-1.26-10.92-2.53a113.07,113.07,0,0,1-12-3.24A47.71,47.71,0,0,1,585,147.48a25.17,25.17,0,0,1-8-8.32q-3.11-5.13-3.1-13a28,28,0,0,1,4.86-16.06q4.86-7.18,14.58-11.55t24.23-4.37a83.62,83.62,0,0,1,19.09,2.19,60.58,60.58,0,0,1,16.69,6.41l-8.59,20.71a66.74,66.74,0,0,0-14-5.71,50.18,50.18,0,0,0-13.38-1.9,29.57,29.57,0,0,0-9.3,1.2,10.55,10.55,0,0,0-5.07,3.17,7.09,7.09,0,0,0-1.55,4.51,5.82,5.82,0,0,0,3,5.14,27.24,27.24,0,0,0,8,3.1c3.33.79,7,1.62,11,2.46s8,1.9,12,3.17a45.91,45.91,0,0,1,10.92,5.07,24.64,24.64,0,0,1,8,8.31q3,5.15,3,12.9a27.88,27.88,0,0,1-4.86,15.84Q647.67,188,638,192.35T613.72,196.71Z"/><path class="cls-1" d="M718.67,117.12a35.49,35.49,0,0,1,16.06,3.59,26.23,26.23,0,0,1,11.34,11.06q4.15,7.47,4.15,19.3v43.67H723.46v-39.3q0-8.17-3.31-11.91t-9.23-3.73a16,16,0,0,0-7.75,1.9,13,13,0,0,0-5.49,5.85,23,23,0,0,0-2,10.28v36.91H668.94V118.39h25.5v21.69l-4.93-6.34a29.29,29.29,0,0,1,12-12.47A35.26,35.26,0,0,1,718.67,117.12Z"/><path class="cls-1" d="M780.37,109.93q-7.32,0-11.83-4.08a13.67,13.67,0,0,1,0-20.29q4.5-4.08,11.83-4.08t11.84,3.87a12.5,12.5,0,0,1,4.5,9.93,13.76,13.76,0,0,1-4.43,10.5Q787.84,109.94,780.37,109.93ZM767,194.74V118.39h26.77v76.35Z"/><path class="cls-1" d="M803.05,141.21v-20h55.37v20Zm11.13,53.53V119.23q0-13.8,8.24-22T846,88.94a47.85,47.85,0,0,1,9.72,1,25.11,25.11,0,0,1,8,3l-6.62,18.87a18.49,18.49,0,0,0-3.8-1.62,14.75,14.75,0,0,0-4.23-.63,8.57,8.57,0,0,0-6.55,2.46q-2.33,2.48-2.33,7.54V125l.71,11.13v58.6Z"/><path class="cls-1" d="M862.22,141.21v-20h55.36v20Zm11.13,53.53V119.23q0-13.8,8.24-22t23.6-8.24a48,48,0,0,1,9.72,1,25.11,25.11,0,0,1,8,3l-6.62,18.87a18.35,18.35,0,0,0-3.81-1.62,14.68,14.68,0,0,0-4.22-.63,8.56,8.56,0,0,0-6.55,2.46q-2.32,2.48-2.33,7.54V125l.7,11.13v58.6Z"/><rect class="cls-2" x="8.95" y="115.92" width="181.95" height="38.37" rx="19.19" transform="translate(-66.15 160.73) rotate(-62.29)"/><rect class="cls-3" x="62.33" y="63.54" width="181.95" height="38.37" rx="19.19" transform="translate(8.77 179.97) rotate(-62.29)"/><path class="cls-4" d="M145.49,56.49l-43.65,83.09a16.88,16.88,0,0,0,5.89,22l43.65-83.09A16.87,16.87,0,0,0,145.49,56.49Z"/><circle class="cls-5" cx="18.58" cy="180.19" r="18.58"/><circle class="cls-6" cx="18.58" cy="111.7" r="18.58"/></g></g></svg>